# xmcd CD database file
#
# Track frame offsets:
#	150
#	15830
#	25732
#	36997
#	52637
#	70450
#	82387
#	98015
#	114095
#	125095
#	140700
#	154227
#	164050
#	175222
#	193345
#	203835
#	217062
#	234232
#	245697
#	261600
#
# Disc length: 3741 seconds
#
# Revision: 2
# Processed by: cddbd v1.5.1PL2 Copyright (c) Steve Scherf et al.
# Submitted via: CDex 1.51
#
DISCID=280e9b14
DTITLE=Zillertaler Schürzenjäger - Es grüßen die Zillertaler Schürzenjäger
DYEAR=1900
DGENRE=
TTITLE0=Zillertaler Hochzeitsmarsch
TTITLE1=Tirol, i bin a Kind von Dir
TTITLE2=Verliebt in die Heimat
TTITLE3=Hörst du die Berge, sie rufen
TTITLE4=Zillertaler Hochzeitsblues
TTITLE5=Ein Tag wie ich ihn mag
TTITLE6=Grüne Tannen
TTITLE7=Sierra Madre
TTITLE8=I dank dir für die schöne Zeit
TTITLE9=Glückwunsch an die Braut
TTITLE10=Logo, Logo
TTITLE11=Timple-Boarischer
TTITLE12=Fremde Kirschen
TTITLE13=Ich lieb´ die Berge meiner Heimat
TTITLE14=Postillonpolka
TTITLE15=Die Nacht nimmt nun Abschied
TTITLE16=Frag die Zigeunerin
TTITLE17=Der alte Vater
TTITLE18=Kleopatra
TTITLE19=Sonata Alpin
EXTD=
EXTT0=
EXTT1=
EXTT2=
EXTT3=
EXTT4=
EXTT5=
EXTT6=
EXTT7=
EXTT8=
EXTT9=
EXTT10=
EXTT11=
EXTT12=
EXTT13=
EXTT14=
EXTT15=
EXTT16=
EXTT17=
EXTT18=
EXTT19=
PLAYORDER=
